<svg width="64" height="64" viewBox="0 0 64 64" fill="none" xmlns="http://www.w3.org/2000/svg">
<path d="M3.86364 48.2546C3.29091 47.6852 1 46.1667 1 46.1667C1 45.4074 3.06182 44.6481 4.43636 44.6481C6.15455 44.6481 7.3 45.5972 10.7364 45.5972C14.1727 45.5972 15.1273 39.9028 20.8545 37.0556C26.5818 34.2083 40.4132 33.2593 44.7182 25.4769C46.8182 21.6806 49.3 13.8981 58.4636 13.8981C61.3273 13.8981 62.4727 12 63.0455 12C63.6182 12 64 12.7593 64 14.2778C64 18.8333 55.9818 20.7315 55.9818 25.287C55.9818 27.7546 51.0182 45.0278 46.2455 45.0278C45.8636 45.0278 46.6273 42.9398 46.2455 42.9398C45.8636 42.9398 41.6636 53 35.1727 53C34.4091 53 33.9 52.7469 33.6455 52.6204C36.3182 50.3426 38.9909 46.5463 38.9909 43.1296C38.9909 42.5602 38.9909 42.1806 38.6091 42.1806C37.8455 42.1806 37.8455 46.5463 34.0273 46.5463C31.3545 46.5463 28.4909 45.4074 24.4818 45.4074C17.2273 45.4074 14.9364 48.6343 12.4545 49.963C9.97273 51.2917 7.3 52.6204 5.77273 52.6204C4.81818 52.6204 3.29091 53 2.71818 53C2.14545 53 2.52727 52.0509 2.90909 51.4815C3.29091 50.912 4.24545 49.7731 4.24545 49.3935C4.24545 48.8241 4.43636 48.8241 3.86364 48.2546Z" fill="white"/>
</svg>
