<svg id="Ebene_1" data-name="Ebene 1" xmlns="http://www.w3.org/2000/svg" width="200" height="200" viewBox="100 0 400 400"><defs><style>.cls-1{fill:#cfd8dc;}.cls-2{fill:#b71c1c;}</style></defs><path class="cls-1" d="M290.6,123.56c-10.65-16-13-37.32-13.46-46.1-27.06,5.86-53.94,16.35-52.39,24.08.2,1,1.42,2.14,3.46,3.28L225,110.51c-3.89-2.18-6.08-4.69-6.67-7.69-1.75-8.75,8.15-16.66,30.28-24.19a277,277,0,0,1,31-8.35l3.9-.78v4c0,.27.17,28,12.5,46.46Z"/><path class="cls-1" d="M301.86,330.5h-1.64c-53.44,0-112.91-16.78-119.94-44.87-4.28-17.16,9.73-36.12,40.54-54.8l3.39,5.57c-27.72,16.82-41.07,33.73-37.59,47.65,6.1,24.38,62.46,39.58,111.89,39.92,5.88-8.79,37.45-60.4,19.43-129.64l6.31-1.64c20.54,78.88-21,135.92-21.41,136.49Z"/><path class="cls-1" d="M205.18,306a24.91,24.91,0,0,1-5.54-.46,3.25,3.25,0,0,1-1.52-5.48c.47-.47,46.94-47,53.22-84.65l6.43,1.06c-5.39,32.39-37.28,69.3-49.94,82.9,12.65-.73,44.59-6.65,105.9-41-47.85-5.25-55.42-43.55-55.5-44l6.42-1.18c.3,1.6,8,39.21,60.3,39.21H325a3.24,3.24,0,0,1,3.14,2.41,3.27,3.27,0,0,1-1.5,3.68C253.35,301.05,217.81,306,205.18,306Z"/><path class="cls-1" d="M235.14,322a3.27,3.27,0,0,1-1.9-5.92c.23-.16,11.83-8.72,24.18-27.58a130.37,130.37,0,0,1-14.33-7.41,53.93,53.93,0,0,1-13.43-11c-16.77,4.42-32.24,6.17-45.83,5l.55-6.5c12.24,1,26.15-.41,41.23-4.17-10.26-17.53-.84-34.94-.71-35.17l5.7,3.17c-.44.8-8.25,15.46,1.63,30.23a270.05,270.05,0,0,0,45.52-18.15,209.52,209.52,0,0,0,8-40.94,3.3,3.3,0,0,1,1.62-2.51,3.26,3.26,0,0,1,3-.14c.21.1,21.29,9.73,36.55,16a3.28,3.28,0,0,1,2,2.68,3.24,3.24,0,0,1-1.41,3A407.75,407.75,0,0,1,283.28,249a177.19,177.19,0,0,1-16,36.47,145.71,145.71,0,0,0,45.38,9.16,3.26,3.26,0,0,1,1.58,6.12c-29.61,16.45-76.76,21.08-78.74,21.27Zm28.61-30.87a136.87,136.87,0,0,1-18.44,23c13-1.92,35.89-6.12,54.85-13.95A155.37,155.37,0,0,1,263.75,291.15Zm-27-23.07a50.65,50.65,0,0,0,9.72,7.44,121.54,121.54,0,0,0,14.48,7.4,170.24,170.24,0,0,0,14-29.8A270.88,270.88,0,0,1,236.73,268.08Zm55-59.37a221.32,221.32,0,0,1-6,31.63c10.83-5.77,21.88-12.37,33-19.74C308.71,216.32,297.6,211.35,291.75,208.71Z"/><path class="cls-1" d="M257.32,119.15a3.34,3.34,0,0,1-2.12-.78c-10.5-9-22.86-27.28-23.38-28.06a3.26,3.26,0,0,1,4.26-4.68c.07,0,6.12,2.51,47.08,9.33a3.27,3.27,0,0,1,1.89,5.4,75.86,75.86,0,0,1-26.57,18.58A3.35,3.35,0,0,1,257.32,119.15ZM242.47,94c4.11,5.54,10,13,15.47,18.06a73.12,73.12,0,0,0,17.9-11.73C259,97.46,248.71,95.42,242.47,94Z"/><path class="cls-2" d="M282.89,209.17a3.2,3.2,0,0,1-1.32-.28,3.26,3.26,0,0,1-1.93-3.32c1.91-17.93-25.61-25.13-25.89-25.2a3.25,3.25,0,0,1-1.5-5.46c1.35-1.35,33.53-33.26,73.89-50.78a3.26,3.26,0,0,1,4.5,3.65c-7.74,37.47-43.78,78.56-45.3,80.29A3.34,3.34,0,0,1,282.89,209.17ZM260.78,175.8c7.73,2.9,21.26,9.62,24.68,21.89,9.45-11.79,29.63-39,37.16-64.8C294,146.66,269.91,167.41,260.78,175.8Z"/><path class="cls-2" d="M225.72,235l-3.1-5.74c12.28-6.62,26.35-18.81,37.88-33-9.81,6.72-15.43,11.32-15.61,11.47l-4.16-5a299.88,299.88,0,0,1,30.21-21c5.13-8.26,9.08-16.75,11.1-24.89.35-1.38.65-2.72.89-4a173.56,173.56,0,0,0-32.1-8.28,3.27,3.27,0,0,1-2.62-2.14,3.31,3.31,0,0,1,.68-3.31c.56-.6,13.81-14.79,30.36-22.59a3.27,3.27,0,0,1,3.79.75c.44.47,9.4,10.53,7.12,31.34a174.82,174.82,0,0,1,22.77,10.75,286.09,286.09,0,0,1,60.2-19.76,3.25,3.25,0,0,1,3.68,4.37c-8.48,21.74-31.22,44.95-32.18,45.93a3.26,3.26,0,0,1-4.88-.26c-7.31-9.18-16.86-16.79-27.16-23a360.8,360.8,0,0,0-37.08,19.89C262.34,207.11,242.45,226,225.72,235Zm94-71.52a107.29,107.29,0,0,1,22.72,19.23c5.4-5.86,18.36-20.67,25.72-35.37A282,282,0,0,0,319.74,163.48Zm-30.62-8.31c-.21,1.06-.46,2.15-.74,3.26A82.89,82.89,0,0,1,282,175.14c7.15-4.09,15.07-8.3,23.61-12.38A165.3,165.3,0,0,0,289.12,155.17Zm-31-16a189.41,189.41,0,0,1,25.71,7.08c1-12-2.26-19.39-4.22-22.65A105.15,105.15,0,0,0,258.13,139.19Z"/><path class="cls-2" d="M258.14,170.68c0,28.57-23.81,51.27-41,67.84-2.87,2.81-12.59,3.26-12.59,3.26,2.41-2.47,5.15-5.08,8.09-7.89,16.3-15.78,38.94-37.38,38.94-63.21,0-30.59-12.33-42.66-22.05-52.31-4.3-4.38-8-8.55-10.17-13.64l2-.85,6.72,2.94a50.84,50.84,0,0,0,6.06,6.91C244.18,123.71,258.14,137.41,258.14,170.68Z"/><path class="cls-2" d="M420.47,179.12s-3.94.56-5.05.69c-57.15,6.33-116.12,22.77-149.84,36.27a291.38,291.38,0,0,0-36.4,17.49,1.54,1.54,0,0,1-.26.13c-6.79,3.91-23.29,12-36.66,19.11C211.83,232,248.49,216,263.1,210.08,296.17,196.84,353,180.86,408.89,174c-6.58-7.7-22.7-24-54.4-36.14-18.53-7.18-46.71-11.22-71.56-14.81-39.53-5.67-62-9.46-64.19-20.22a10,10,0,0,1,.85-6.39,26.19,26.19,0,0,0,7.24,7.43,19.32,19.32,0,0,0,2,1.18l.06.06c9.27,4.9,34.25,8.48,55.06,11.48,25.18,3.66,53.69,7.77,72.93,15.14,44.81,17.28,60.27,42,60.93,43S420.47,179.12,420.47,179.12Z"/></svg>