<svg width="64" height="64" viewBox="0 0 64 64" fill="none" xmlns="http://www.w3.org/2000/svg">
<path d="M24.2972 41.0507C26.2738 43.2638 28.0527 44.8733 30.0952 46.5499C28.6457 45.0075 25.7138 41.0507 24.2972 38.1669C22.6501 34.8137 22.8477 34.1431 22.6501 34.1431C22.4524 34.1431 21.3324 35.2161 20.8053 36.8256C20.2782 38.4352 20.4758 41.0507 20.1464 41.0507C19.0922 41.0507 17.5769 38.301 17.5769 34.5455C17.5769 30.7899 19.0264 28.9791 19.0264 27.772C19.0264 26.8331 15.6003 23.6811 15.0073 18.9195C14.8152 17.377 11.3177 14.0909 11.3177 12.8167C11.3177 12.4814 11.3177 11.6766 12.306 11.6766C14.612 11.6766 17.2474 13.9568 17.9063 14.6274C18.1698 14.8957 20.4911 14.6323 22.1889 15.0969C28.3163 16.7735 34.3777 24.4858 35.6955 27.5708C36.2595 28.8913 40.2264 38.0953 41.164 38.8376C42.3499 39.7765 45.0512 40.1473 46.9619 41.5201C48.082 42.3249 51.9693 44.9404 51.5739 44.8733C51.1786 44.8063 44.3265 45.2757 44.3265 46.4829C44.3265 47.0194 44.5242 47.2206 45.5783 48.763C46.3575 49.9031 49.0703 51.4456 50.4539 51.9151C51.5608 52.2906 53.9458 54.1282 55 55C54.407 53.7258 52.101 51.1103 50.7174 50.2384C49.3338 49.3666 46.9619 47.9583 46.9619 47.0864C46.9619 46.8182 48.2796 46.617 49.3338 46.4829C50.388 46.3487 53.4187 46.0134 53.4187 45.544C53.4187 44.8733 51.5081 43.1967 48.8067 41.0507C46.1054 38.9046 42.9429 38.0999 42.5476 37.6975C42.1523 37.2951 39.1175 30.6921 37.7379 27.3025C35.8272 22.608 27.5915 13.152 19.4876 13.152C18.4993 13.152 16.1274 10 12.5037 10C11.5813 10 10 10.2683 10 12.4814C10 14.6945 13.3602 17.5782 13.8214 20.1937C14.2826 22.8092 17.5769 27.4367 17.5769 27.772C17.5769 28.1073 16.1274 30.9911 16.1274 34.7466C16.1274 38.5022 18.2357 42.6602 20.41 42.6602C22.5842 42.6602 22.3206 37.8987 22.6501 37.8987C22.9795 37.8987 23.5725 40.2392 24.2972 41.0507Z" fill="white"/>
<path d="M20.0805 17.7124C19.8697 17.7124 19.202 17.8465 18.8946 17.9136C19.1581 18.1818 19.7511 18.8256 20.0146 19.2548C20.3441 19.7914 20.5417 20.7303 20.6735 20.7303C20.8053 20.7303 21.3324 20.1937 21.3324 19.389C21.3324 18.5842 20.3441 17.7124 20.0805 17.7124Z" fill="white"/>
<path d="M24.2972 41.0507C26.2738 43.2638 28.0527 44.8733 30.0952 46.5499C28.6457 45.0075 25.7138 41.0507 24.2972 38.1669C22.6501 34.8137 22.8477 34.1431 22.6501 34.1431C22.4524 34.1431 21.3324 35.2161 20.8053 36.8256C20.2782 38.4352 20.4758 41.0507 20.1464 41.0507C19.0922 41.0507 17.5769 38.301 17.5769 34.5455C17.5769 30.7899 19.0264 28.9791 19.0264 27.772C19.0264 26.8331 15.6003 23.6811 15.0073 18.9195C14.8152 17.377 11.3177 14.0909 11.3177 12.8167C11.3177 12.4814 11.3177 11.6766 12.306 11.6766C14.612 11.6766 17.2474 13.9568 17.9063 14.6274C18.1698 14.8957 20.4911 14.6323 22.1889 15.0969C28.3163 16.7735 34.3777 24.4858 35.6955 27.5708C36.2595 28.8913 40.2264 38.0953 41.164 38.8376C42.3499 39.7765 45.0512 40.1473 46.9619 41.5201C48.082 42.3249 51.9693 44.9404 51.5739 44.8733C51.1786 44.8063 44.3265 45.2757 44.3265 46.4829C44.3265 47.0194 44.5242 47.2206 45.5783 48.763C46.3575 49.9031 49.0703 51.4456 50.4539 51.9151C51.5608 52.2906 53.9458 54.1282 55 55C54.407 53.7258 52.101 51.1103 50.7174 50.2384C49.3338 49.3666 46.9619 47.9583 46.9619 47.0864C46.9619 46.8182 48.2796 46.617 49.3338 46.4829C50.388 46.3487 53.4187 46.0134 53.4187 45.544C53.4187 44.8733 51.5081 43.1967 48.8067 41.0507C46.1054 38.9046 42.9429 38.0999 42.5476 37.6975C42.1523 37.2951 39.1175 30.6921 37.7379 27.3025C35.8272 22.608 27.5915 13.152 19.4876 13.152C18.4993 13.152 16.1274 10 12.5037 10C11.5813 10 10 10.2683 10 12.4814C10 14.6945 13.3602 17.5782 13.8214 20.1937C14.2826 22.8092 17.5769 27.4367 17.5769 27.772C17.5769 28.1073 16.1274 30.9911 16.1274 34.7466C16.1274 38.5022 18.2357 42.6602 20.41 42.6602C22.5842 42.6602 22.3206 37.8987 22.6501 37.8987C22.9795 37.8987 23.5725 40.2392 24.2972 41.0507Z" stroke="white" stroke-width="3"/>
<path d="M20.0805 17.7124C19.8697 17.7124 19.202 17.8465 18.8946 17.9136C19.1581 18.1818 19.7511 18.8256 20.0146 19.2548C20.3441 19.7914 20.5417 20.7303 20.6735 20.7303C20.8053 20.7303 21.3324 20.1937 21.3324 19.389C21.3324 18.5842 20.3441 17.7124 20.0805 17.7124Z" stroke="white" stroke-width="3"/>
</svg>
