<svg width="133" height="58" viewBox="0 0 133 58" fill="none" xmlns="http://www.w3.org/2000/svg">
<path d="M22.8526 21.4207H15.0254C11.1455 21.4207 8 24.8352 8 29.0471C8 33.2612 11.1455 36.6757 15.0254 36.6757H22.8526C26.734 36.6757 29.8795 33.2612 29.8795 29.0471C29.8795 24.8345 26.734 21.4207 22.8526 21.4207ZM21.271 33.2118H16.607C14.2952 33.2118 12.4204 31.3486 12.4204 29.0471C12.4204 26.7478 14.2945 24.8845 16.607 24.8845H21.271C23.5843 24.8845 25.4577 26.7485 25.4577 29.0471C25.4584 31.3486 23.5843 33.2118 21.271 33.2118Z" fill="#878FC6"/>
<path d="M52.2109 23.7824C51.7439 22.2256 50.9429 21.4169 49.5109 21.4169C48.5809 21.4169 47.4339 21.712 46.8079 22.9406C45.6479 25.216 43.1874 30.1549 43.1874 30.1549C43.1874 30.1549 40.7339 25.2435 39.573 22.9681C38.9469 21.7388 37.7931 21.4169 36.8638 21.4169C35.4324 21.4169 34.6321 22.2256 34.1639 23.7824C33.7 25.328 30.4199 36.4366 30.4199 36.4366H34.9281L37.2768 27.4738C37.2768 27.4738 38.4355 30.5748 39.4916 33.0693C40.2183 34.7867 41.7559 35.4046 43.0238 35.4046C44.2916 35.4046 45.5389 34.8375 46.4529 33.2116C47.5729 31.2229 49.0979 27.4005 49.0979 27.4005L51.4459 36.4366H55.9539C55.9539 36.4366 52.6749 25.3287 52.2109 23.7824Z" fill="#878FC6"/>
<path d="M57.6339 36.4366C57.6339 36.4366 57.6339 25.3689 57.6339 24.1783C57.6339 22.9871 58.4759 21.4169 59.9319 21.4169C61.3879 21.4169 62.5749 22.7335 63.2519 23.3393C63.9299 23.9452 71.3249 30.5163 71.3249 30.5163V21.6599H75.2899C75.2899 21.6599 75.2899 32.6706 75.2899 34.0302C75.2899 35.3898 74.4459 36.6796 72.7579 36.6796C71.0699 36.6796 70.2499 35.6391 69.1759 34.5719C68.1029 33.5046 61.7879 27.0067 61.7879 27.0067V36.438H57.6339V36.4366Z" fill="#878FC6"/>
<path d="M82.0319 21.6599H78.0659V36.4373H82.0319V21.6599Z" fill="#878FC6"/>
<path d="M84.8739 27.2261C84.8739 27.2261 84.8739 33.5598 84.8739 34.4644C84.8739 35.3689 85.2319 36.4368 86.7609 36.4368C88.2899 36.4368 91.1979 36.4368 94.8219 36.4368C98.4459 36.4368 103.774 33.5901 103.774 28.9048C103.774 24.2194 99.5759 21.6602 94.6979 21.6602C89.8199 21.6602 87.8059 21.6602 87.8059 21.6602L84.8749 25.5037C84.8749 25.5037 90.8709 25.5037 94.8229 25.5037C98.7749 25.5037 99.2219 28.2412 99.2219 29.1034C99.2219 29.9657 98.5889 32.637 94.8229 32.637C91.0569 32.637 89.4929 32.637 89.4929 32.637V27.2261H84.8739Z" fill="#515579"/>
<path d="M122.871 28.8383C122.871 28.8383 124.892 27.8542 124.892 25.7457C124.892 23.6373 123.387 21.6592 119.053 21.6592C114.718 21.6592 109.213 21.6592 109.213 21.6592L106.104 25.5027C106.104 25.5027 117.651 25.5027 118.794 25.5027C119.938 25.5027 120.54 25.7521 120.54 26.4516C120.54 27.1511 119.997 27.4463 118.724 27.4463C117.449 27.4463 106.105 27.4463 106.105 27.4463C106.105 27.4463 106.105 33.1249 106.105 34.102C106.105 35.0791 106.564 36.4359 109.294 36.4359C112.025 36.4359 116.689 36.4359 119.163 36.4359C121.635 36.4359 125.198 35.0812 125.198 32.3282C125.196 29.5766 122.871 28.8383 122.871 28.8383ZM118.685 32.6367C117.449 32.6367 110.722 32.6367 110.722 32.6367V30.6051C110.722 30.6051 117.75 30.6051 118.794 30.6051C119.838 30.6051 120.605 30.6544 120.605 31.5998C120.605 32.5451 119.923 32.6367 118.685 32.6367Z" fill="#515579"/>
</svg>
