<svg width="64" height="64" viewBox="0 0 64 64" fill="none" xmlns="http://www.w3.org/2000/svg">
<path fill-rule="evenodd" clip-rule="evenodd" d="M21 10C11.0589 10 3 18.0589 3 28V36.6154C3 46.5565 11.0589 54.6154 21 54.6154H43C52.9411 54.6154 61 46.5565 61 36.6154V28C61 18.0589 52.9411 10 43 10H21ZM24.1923 16.8077C16.1841 16.8077 9.69226 22.2996 9.69226 32.3077C9.69226 42.3159 16.1841 47.8077 24.1923 47.8077H39.8076C47.8158 47.8077 54.3076 42.3159 54.3076 32.3077C54.3076 22.2996 47.8158 16.8077 39.8076 16.8077H24.1923Z" fill="white"/>
</svg>
