<svg width="64" height="64" viewBox="0 0 64 64" fill="none" xmlns="http://www.w3.org/2000/svg">
<path fill-rule="evenodd" clip-rule="evenodd" d="M48.4767 46.4329C48.4394 46.7022 48.3764 47.4568 48.3276 47.7749C48.0175 58.654 44.2451 60.8428 39.8286 61.7906C34.5442 62.9248 33.1172 59.1529 32.5484 57.6157C32.1726 56.6001 32.2008 54.827 32.2309 52.9348C32.2464 51.9629 32.2624 50.9597 32.2244 50.0114C32.2167 49.8195 32.2093 49.6314 32.2022 49.4469C32.1047 46.9458 31.7361 46.0316 31.1806 45.091C29.2423 48.0731 24.0236 47.6258 21.9362 46.4329C20.7434 45.5383 18.1664 43.2469 22.2344 42.4071C25.9462 41.6422 26.2357 41.273 27.1966 40.0479C27.2767 39.9459 27.3613 39.8379 27.453 39.7233C27.51 39.6094 27.5669 39.5172 27.6156 39.4385C27.6943 39.3112 27.7512 39.219 27.7512 39.1269H27.1548C26.9001 39.095 26.6671 39.0775 26.4447 39.0608C25.6256 38.9994 24.9515 38.9487 23.8745 38.2322C23.8745 38.2322 21.3602 41.0578 18.5068 44.4946C10.6998 53.8935 3.27426 22.2136 3.03765 17.4751C1.92512 -4.79992 25.8393 5.06676 25.8393 5.06676C27.7803 3.59235 30.3392 2.6515 33.7114 2.70699C35.5625 2.73697 37.2104 2.91977 38.6828 3.22586L38.7542 3.21251C38.9785 3.09084 52.3837 -1.59545 60.128 8.31441C62.9673 11.9475 59.9241 26.2416 52.0552 37.934C52.0552 37.934 51.7602 39.1754 59.2121 37.6358C61.2996 37.0394 61.7469 39.276 59.2121 42.2769C57.7211 43.8982 53.9087 45.0332 51.9061 44.9419H50.415C48.6258 44.4946 48.7719 44.2991 48.4767 46.4329ZM50.2659 37.6358C50.2659 37.6358 49.3957 38.9536 51.1605 39.5742C52.3384 39.9884 55.3387 39.5621 58.1684 38.9778C61.2667 38.3373 59.581 40.8171 56.4387 42.2769C54.9795 42.9558 52.4932 43.3482 50.5935 43.2617L49.9662 43.2066C47.7916 42.7332 47.6214 40.5993 47.4329 42.5777C47.3885 43.0444 46.9072 44.8334 46.8365 45.423L46.5383 48.5204C46.4499 49.6707 46.3892 49.7667 46.2401 50.9061C46.093 51.4385 46.207 52.2495 45.7928 53.739C44.951 56.7663 44.0181 58.9536 39.8286 59.8523C35.3128 60.8209 34.434 58.614 33.8645 56.8702C33.8017 56.678 33.7739 55.8367 33.7154 55.6774C33.7154 54.3355 33.6274 52.4377 33.7154 49.4469C33.8034 46.456 32.5755 43.8059 31.8279 43.2066V42.5777C29.0229 46.5086 24.8714 45.8722 23.077 45.423C21.9362 45.091 20.296 43.7491 23.4272 43.2066C26.4357 42.5867 26.9771 42.0896 27.9003 40.9161C28.1475 40.602 28.5412 39.8891 28.9441 39.4385C28.9028 39.1705 28.3986 39.1158 28.4905 38.9514C28.5592 38.8285 28.629 38.7036 28.6459 38.5304L28.4905 37.6358C26.8602 37.7941 24.7263 36.8595 23.4272 35.9957C23.4272 35.9957 20.6172 39.4465 17.9104 42.7054C11.3498 50.757 5.01369 22.4475 4.78925 17.9541C3.7342 -3.16705 25.8393 7.21863 25.8393 7.21863C27.6805 5.82087 30.4243 4.10879 33.6232 4.16127C35.38 4.18997 36.9431 4.36288 38.3398 4.65312L38.4081 4.64088C38.6203 4.52552 51.3368 0.0818037 58.6829 9.47782C61.3757 12.9223 57.7302 26.5483 50.2659 37.6358Z" fill="white"/>
<path d="M58.1684 38.9778C61.2667 38.3373 59.581 40.8171 56.4387 42.2769C54.9795 42.9558 52.4932 43.3482 50.5935 43.2617L49.9662 43.2066C47.7916 42.7332 47.6214 40.5993 47.4329 42.5777C47.3885 43.0444 46.9072 44.8334 46.8365 45.423L46.5383 48.5204C46.4499 49.6707 46.3892 49.7667 46.2401 50.9061C46.093 51.4385 46.207 52.2495 45.7928 53.739C44.951 56.7663 44.0181 58.9536 39.8286 59.8523C35.3128 60.8209 34.434 58.614 33.8645 56.8702C33.8017 56.678 33.7739 55.8367 33.7154 55.6774C33.7154 54.3355 33.6274 52.4377 33.7154 49.4469C33.8034 46.456 32.5755 43.8059 31.8279 43.2066V42.5777C29.0229 46.5086 24.8714 45.8722 23.077 45.423C21.9362 45.091 20.296 43.7491 23.4272 43.2066C26.4357 42.5867 26.9771 42.0896 27.9003 40.9161C28.1475 40.602 28.5412 39.8891 28.9441 39.4385C28.9028 39.1705 28.3986 39.1158 28.4905 38.9514C28.5592 38.8285 28.629 38.7036 28.6459 38.5304L28.4905 37.6358C26.8602 37.7941 24.7263 36.8595 23.4272 35.9957C23.4272 35.9957 20.6172 39.4465 17.9104 42.7054C11.3498 50.757 5.01369 22.4475 4.78925 17.9541C3.7342 -3.16705 25.8393 7.21863 25.8393 7.21863C27.6805 5.82087 30.4243 4.10879 33.6232 4.16127C35.38 4.18997 36.9431 4.36288 38.3398 4.65312L38.4081 4.64088C38.6203 4.52552 51.3368 0.0818037 58.6829 9.47782C61.3757 12.9223 57.7302 26.5483 50.2659 37.6358C50.2659 37.6358 49.3957 38.9536 51.1605 39.5742M58.1684 38.9778C55.3387 39.5621 52.3384 39.9884 51.1605 39.5742M58.1684 38.9778L51.1605 39.5742M48.3276 47.7749C48.3764 47.4568 48.4394 46.7022 48.4767 46.4329C48.7719 44.2991 48.6258 44.4946 50.415 44.9419H51.9061C53.9087 45.0332 57.7211 43.8982 59.2121 42.2769C61.7469 39.276 61.2996 37.0394 59.2121 37.6358C51.7602 39.1754 52.0552 37.934 52.0552 37.934C59.9241 26.2416 62.9673 11.9475 60.128 8.31441C52.3837 -1.59545 38.9785 3.09084 38.7542 3.21251L38.6828 3.22586C37.2104 2.91977 35.5625 2.73697 33.7114 2.70699C30.3392 2.6515 27.7803 3.59235 25.8393 5.06676C25.8393 5.06676 1.92512 -4.79992 3.03765 17.4751C3.27426 22.2136 10.6998 53.8935 18.5068 44.4946C21.3602 41.0578 23.8745 38.2322 23.8745 38.2322C24.9515 38.9487 25.6256 38.9994 26.4447 39.0608C26.6671 39.0775 26.9001 39.095 27.1548 39.1269H27.7512C27.7512 39.219 27.6943 39.3112 27.6156 39.4385C27.5669 39.5172 27.51 39.6094 27.453 39.7233C27.3613 39.8379 27.2767 39.9459 27.1966 40.0479C26.2357 41.273 25.9462 41.6422 22.2344 42.4071C18.1664 43.2469 20.7434 45.5383 21.9362 46.4329C24.0236 47.6258 29.2423 48.0731 31.1806 45.091C31.7361 46.0316 32.1047 46.9458 32.2022 49.4469C32.2093 49.6314 32.2167 49.8195 32.2244 50.0114C32.2624 50.9597 32.2464 51.9629 32.2309 52.9348C32.2008 54.827 32.1726 56.6001 32.5484 57.6157C33.1172 59.1529 34.5442 62.9248 39.8286 61.7906C44.2451 60.8428 48.0175 58.654 48.3276 47.7749Z" stroke="white" stroke-width="2"/>
<path d="M31.1806 39.1268C32.0752 40.0214 32.2243 41.5125 31.9261 43.4508L30.7333 43.8981C31.1806 42.8544 31.2999 41.3932 30.5842 40.3196C29.8685 39.2461 28.6956 39.5741 28.0494 39.5741L28.1985 38.6795C29.0932 38.0831 30.4649 38.4111 31.1806 39.1268Z" fill="white" stroke="white" stroke-width="2"/>
<path d="M48.0293 39.5741C47.377 40.6178 46.8365 43.4508 48.9239 44.0472C49.5204 43.8981 50.2159 43.9971 49.5204 43.3016C48.7748 42.5562 48.6257 41.3633 49.2221 40.3196C49.5204 39.7977 50.5641 39.425 51.0114 39.5741C52.8719 40.1942 52.6516 38.8285 51.7569 37.9339C51.4588 37.6358 49.0544 37.9339 48.0293 39.5741Z" fill="white" stroke="white" stroke-width="2"/>
<path d="M46.6874 32.8645C47.7312 35.101 48.924 36.443 50.1168 38.2322L52.2043 38.5304C52.1049 38.4807 51.3589 37.9052 49.5204 34.8028C47.1348 30.777 44.4509 23.7691 44.4509 21.8308C44.4509 19.8924 46.3892 19.1469 48.3276 19.1469C50.2659 19.1469 51.3097 19.5942 51.757 19.1469C52.2043 18.6996 52.4973 18.9163 51.9061 17.3577C50.2659 13.0336 43.5563 2.74548 34.1627 2.74548C22.6818 2.74548 19.8488 12.5863 19.8488 18.6996C19.8488 20.0793 20.147 23.1483 20.147 24.8129C20.147 26.9362 19.8488 28.753 19.8488 30.9261C19.8488 34.0573 22.0853 37.0394 23.4272 37.934L26.1112 37.4867C23.4272 36.1447 21.3398 33.1627 21.3398 30.4788C21.3398 28.9524 21.7871 26.3962 21.7871 24.3655C21.7871 21.2388 21.3398 19.1469 21.3398 17.805C21.3398 16.1648 23.7255 4.08742 34.0136 4.08742C41.0215 4.08742 49.0731 13.481 50.415 17.6559C47.8803 17.3577 42.9598 17.3577 42.9598 21.8308C42.9598 25.5584 45.2705 29.8281 46.6874 32.8645Z" fill="white" stroke="white" stroke-width="2"/>
<path d="M31.0315 26.7512C31.0315 32.5662 27.9003 36.4429 27.9003 38.5304C28.3973 39.5741 29.3914 39.2759 29.3914 38.5304C29.3914 35.3992 32.5226 32.4171 32.5226 25.8566C32.5226 19.296 30.7333 17.0594 27.3039 17.0594C24.5604 17.0594 21.8865 18.5505 20.8925 19.296L21.1907 21.2344C21.8368 20.3397 23.8745 18.5505 26.8566 18.5505C30.5842 18.5505 31.0315 20.9361 31.0315 26.7512Z" fill="white" stroke="white" stroke-width="2"/>
<path d="M53.248 32.4172C53.248 34.0573 53.0989 34.3555 51.9061 37.7849H50.1168C50.6635 36.8903 51.757 34.5643 51.757 32.4172C51.757 29.7333 50.7132 26.7512 50.7132 25.1111C50.7132 23.4709 51.1605 22.129 51.1605 20.9362C51.1605 19.9819 50.7629 18.8487 50.5641 18.4014C50.912 17.805 51.7271 16.97 52.2043 18.4014C52.8007 20.1907 52.2043 22.8745 52.2043 24.962C52.2043 27.0495 53.248 30.7771 53.248 32.4172Z" fill="white" stroke="white" stroke-width="2"/>
<path d="M24.773 21.2345C24.6962 21.7374 25.7689 23.0784 27.1677 23.2576C28.564 23.4375 29.7591 22.3894 29.8349 21.8873C29.9107 21.3846 28.8393 20.831 27.44 20.651C26.0429 20.4711 24.8472 20.7331 24.7733 21.2345H24.773Z" fill="white"/>
<path d="M49.8152 21.5327C49.8821 22.0356 48.937 23.3766 47.703 23.5558C46.4704 23.7357 45.4162 22.6876 45.3486 22.1855C45.2835 21.6828 46.2287 21.1292 47.4616 20.9492C48.6944 20.7693 49.7484 21.0313 49.8152 21.533V21.5327Z" fill="white"/>
</svg>
